<?xml version="1.0" encoding="utf-8"?>
<!-- Generator: Adobe Illustrator 26.0.2, SVG Export Plug-In . SVG Version: 6.00 Build 0)  -->
<svg version="1.1" id="图层_1" xmlns="http://www.w3.org/2000/svg" xmlns:xlink="http://www.w3.org/1999/xlink" x="0px" y="0px"
	 viewBox="0 0 39.2 96.5" style="enable-background:new 0 0 39.2 96.5;" xml:space="preserve">
<style type="text/css">
	.st0{fill:none;stroke:#000000;stroke-width:4;stroke-linecap:round;stroke-linejoin:round;}
</style>
<g>
	<path id="head" class="st0" d="M13.7,2.6v17.9c0,3.4,2.8,6.2,6.2,6.2s6.2-2.8,6.2-6.2V2.6H13.7z"/>
	<path id="neck" class="st0" d="M4.7,2.5v18.3c0.1,1.4,0.4,3.6,1.5,6c0.4,1,1.4,3.1,3.5,5c0.8,0.7,1.5,1.2,3,2.2
		c3.3,2.2,4.2,2.1,5.2,3.3c0.7,0.9,1.6,2.4,1.6,5.2V47"/>
	<path id="left-hand" class="st0" d="M19.5,47l-0.3-1.9c-2.1,0.8-4.8,2.1-7.4,4.2c-5.6,4.5-8.2,9.9-9.3,12.8"/>
	<path id="right-hand" class="st0" d="M19.5,47l-0.3-1.9c1.6,0.3,4.2,0.6,7.2-0.2c6.8-1.9,9.8-7.9,10.3-9"/>
	<path id="body" class="st0" d="M19.5,47L19,46.8c-0.1,3.6-0.2,7.2-0.3,10.8"/>
	<path id="left-leg" class="st0" d="M18.7,57.6c0.1,4.1-0.2,10.5-2.7,17.7C12.6,84.7,7.1,90.9,3.9,94"/>
	<path id="right-leg" class="st0" d="M18.7,57.6c-0.1,4.1,0.2,10.5,2.7,17.7c3.4,9.4,8.9,15.6,12.1,18.7"/>
</g>
</svg>
