<?xml version="1.0" encoding="utf-8"?>
<!-- Generator: Adobe Illustrator 26.0.2, SVG Export Plug-In . SVG Version: 6.00 Build 0)  -->
<svg version="1.1" id="图层_1" xmlns="http://www.w3.org/2000/svg" xmlns:xlink="http://www.w3.org/1999/xlink" x="0px" y="0px"
	 viewBox="0 0 156.9 82.4" style="enable-background:new 0 0 156.9 82.4;" xml:space="preserve">
<rect x="0" y="0" width="156.9" height="82.4" rx="16" fill="#ffffff" />
<style type="text/css">
	.st0{display:none;}
	.st1{display:inline;}
	.st2{fill:none;stroke:#000000;stroke-width:4;stroke-linecap:round;stroke-linejoin:round;}
</style>
<g class="st0">
	<path class="st1" d="M17,24.4c4,0,7.2-3.2,7.2-7.2V0.1H9.8v17.1C9.8,21.2,13,24.4,17,24.4z M13.7,4h6.6v13.2
		c0.1,1.8-1.3,3.4-3.2,3.5c-1.8,0.1-3.4-1.3-3.5-3.2c0-0.1,0-0.2,0-0.3V4H13.7z"/>
	<path class="st1" d="M18.2,45.5c0-1.9,0.1-3.6,0.1-4.1v-0.1c0-0.3,0-0.6,0-0.8c1.6,0.1,3.3-0.1,4.9-0.5c6.2-1.7,9.2-7.1,10-8.7
		l0.8-1.7l-3.5-1.7l-0.8,1.8c-0.6,1.2-2.9,5.3-7.5,6.6c-1.2,0.3-2.4,0.4-3.5,0.4V36c0.1-2-0.5-4-1.8-5.6c-0.6-0.7-1.4-1.3-2.3-1.7
		c-0.9-0.5-1.7-1-2.5-1.5s-1.5-1-2.2-1.6c-1.1-1-1.9-2.2-2.5-3.6s-1-2.8-1.1-4.3V0H2.4v17.6c0.1,2,0.6,3.9,1.4,5.8
		c0.8,1.8,1.9,3.5,3.4,4.9c0.9,0.8,1.8,1.4,2.8,2c0.9,0.6,1.9,1.2,2.8,1.7c0.7,0.4,0.9,0.5,1.1,0.7c0.7,0.9,1,2,0.9,3.2V37
		c-2,0.9-3.9,2-5.6,3.4c-3.8,3.1-6.7,7.1-8.4,11.7L0,53.7l3.6,1.4l0.7-1.8c1.9-5.1,5.5-9.3,10.2-11.9l0,0c0,0.9-0.1,2-0.1,3.3
		s-0.1,2.7,0,4.1c0,4.9-0.8,9.7-2.2,14.4c-2,5.8-5.4,11-9.8,15.2L1,79.5l2.7,2.8L5.1,81c4.9-4.6,8.5-10.3,10.7-16.7
		c0.2-0.5,0.3-1,0.5-1.5c0.2,0.9,0.4,1.4,0.4,1.5c2.2,6.3,5.9,12.1,10.7,16.7l1.4,1.4l2.7-2.8l-1.4-1.4c-4.4-4.2-7.7-9.4-9.7-15.1
		c-1.4-4.7-2.2-9.5-2.2-14.4v-0.1C18.2,47.5,18.2,46.5,18.2,45.5z"/>
</g>
<g>
	<g>
		<path d="M61.5,5.7L57.3,4c-2.5,3.2-7.8,7-12.3,9.4c0.8,1.1,1.6,2.3,2.3,3.5C52.7,14,57.5,10.2,61.5,5.7z"/>
		<path d="M53.2,46.7h4.2V21.5c1.7-1.8,3.3-3.7,4.8-5.8l-3.8-1.6c-3.4,4.7-9,9.4-14.2,12.3c0.9,1.4,1.6,2.8,2.2,4.2
			c2.4-1.6,4.7-3.3,6.8-5.2C53.2,25.4,53.2,46.7,53.2,46.7z"/>
		<path d="M94.2,5.3H66.5v15.6h27.7C94.2,20.9,94.2,5.3,94.2,5.3z M89.8,17.8H70.6v-3.2h19.2V17.8z M89.8,11.6H70.6V8.4h19.2V11.6z"
			/>
		<path d="M73.8,43.2l3.2-2.3c-2.2-2.4-4.7-4.5-7.4-6.3l-3,2C69.3,38.6,71.7,40.8,73.8,43.2z"/>
		<path d="M89.2,34.3h8.6v-3.7h-8.7v-3.5h7.7v-3.6h-34v3.6h22.1v3.5H61.6v3.6H85v7.9c0,0.6-0.3,0.7-1.2,0.8c-0.8,0.1-3.7,0.1-7,0
			c0.6,1.2,1.1,2.5,1.4,3.8c4.3,0,7,0,8.8-0.6s2.3-1.7,2.3-3.8v-8H89.2z"/>
		<path d="M118.3,11.9c-2.8-2.6-5.8-4.9-8.9-7l-2.8,2.7c3.1,2.2,6,4.7,8.7,7.3L118.3,11.9z"/>
		<path d="M111.4,38c0,1.5-0.8,3-2.1,3.8c0.9,1.2,1.7,2.5,2.2,3.9c0.9-0.9,2.3-1.9,11.5-7.1c-0.5-1.2-0.9-2.4-1.2-3.6l-6.4,3.5V18.2
			H103v4.1h8.3L111.4,38L111.4,38z"/>
		<path d="M152.2,6h-27v12.9h27V6z M148,15.3h-18.7V9.7H148V15.3z"/>
		<path d="M153.6,46.9c0.7-1.4,1.6-2.6,2.8-3.7c-7.1-1.3-12.3-4.3-15.1-8.6h14.8v-3.8H140c0.2-1.4,0.4-2.9,0.6-4.4h13.3v-3.8h-30.2
			v3.8h12.7c-0.1,1.5-0.3,3-0.6,4.4h-14.1v3.8h12.8c-2,4.1-6,6.9-14.5,8.7c1,1,1.8,2.2,2.4,3.5c8.8-2.2,13.3-5.5,15.7-10.2
			C141.2,41.6,146.4,45,153.6,46.9z"/>
	</g>
	<g>
		<path d="M65,55.5c-0.9-0.9-2-1.7-3.3-2.1c-1.3-0.5-2.7-0.8-4.2-0.7H47.4v21.1h10.1c1.1,0,2.3-0.2,3.4-0.5c1-0.3,2-0.8,2.9-1.4
			s1.6-1.4,2.2-2.2c0.6-0.9,1.1-1.9,1.4-2.9c0.3-1.1,0.5-2.3,0.5-3.5c0-1.5-0.2-2.9-0.8-4.3C66.6,57.6,65.9,56.5,65,55.5z
			 M63.6,65.9c-0.2,0.8-0.5,1.5-0.9,2.1s-0.9,1.1-1.5,1.6c-0.6,0.4-1.2,0.7-1.8,0.9c-0.7,0.2-1.4,0.3-2.2,0.3h-6.1V55.6h6.1
			c0.9,0,1.8,0.2,2.7,0.5c0.8,0.3,1.6,0.8,2.2,1.5c0.6,0.7,1.1,1.5,1.4,2.4c0.3,1,0.5,2.1,0.5,3.3C64,64.1,63.8,65,63.6,65.9z"/>
		<path d="M81.7,58.7c-1-0.3-2.1-0.5-3.2-0.5c-1,0-1.9,0.1-2.8,0.4c-0.8,0.2-1.6,0.6-2.3,1.1c-0.7,0.5-1.3,1-1.7,1.7
			c-0.5,0.7-0.9,1.4-1.1,2.2c-0.3,0.9-0.4,1.7-0.4,2.6c0,1.5,0.3,2.9,1,4.2c0.7,1.2,1.7,2.1,2.9,2.8c1.4,0.7,2.9,1.1,4.4,1
			c1.4,0.1,2.7-0.2,4-0.6c1-0.4,1.9-0.9,2.6-1.7c0.6-0.6,1-1.4,1.3-2.3h-3.6c-0.3,0.6-0.9,1.1-1.5,1.4c-0.8,0.4-1.7,0.6-2.7,0.6
			s-1.9-0.2-2.8-0.7c-0.7-0.5-1.3-1.1-1.6-1.9c-0.2-0.6-0.4-1.3-0.5-1.9h12.7c0.1-1.4-0.1-2.8-0.5-4.1
			C85.4,60.9,83.8,59.3,81.7,58.7z M73.8,64.8c0-0.1,0-0.3,0.1-0.4c0.1-0.5,0.3-1,0.5-1.5c0.2-0.4,0.5-0.8,0.9-1.1s0.9-0.6,1.4-0.7
			c0.6-0.2,1.2-0.3,1.8-0.3c0.6,0,1.2,0.1,1.7,0.2c1,0.3,1.9,1,2.3,2c0.2,0.6,0.4,1.2,0.4,1.8H73.8z"/>
		<path d="M94.5,54.5H91v4.1h-3.1v2.6H91v8.4c-0.1,1.2,0.4,2.3,1.2,3.1c0.9,0.8,2.1,1.1,3.3,1.1h3.3v-2.6h-2.2
			c-0.6,0-1.1-0.2-1.6-0.6c-0.4-0.4-0.7-1-0.6-1.6v-7.8h4.4v-2.6h-4.4L94.5,54.5L94.5,54.5z"/>
		<path d="M108.9,69.8L104,58.6h-3.9l7,14.9l-0.6,1.3c-0.2,0.6-0.6,1.1-1.1,1.4s-1.1,0.4-1.7,0.4h-2.4v2.6h2.7
			c2.4,0.2,4.7-1.2,5.5-3.5l7.6-17.3h-3.5L108.9,69.8z"/>
		<path d="M132.3,59.1c-1.1-0.6-2.4-1-3.7-0.9c-0.9,0-1.8,0.1-2.6,0.4c-0.8,0.3-1.5,0.7-2.2,1.2c-0.4,0.4-0.8,0.8-1.1,1.3v-2.5h-3.5
			v20.8h3.5v-8.1c0.3,0.5,0.7,0.9,1.1,1.3c0.6,0.5,1.4,0.9,2.2,1.2c0.9,0.3,1.7,0.4,2.6,0.4c1.5,0,3-0.5,4.3-1.4
			c0.6-0.4,1.1-1,1.6-1.6c0.5-0.7,0.8-1.4,1-2.2c0.2-0.9,0.4-1.8,0.4-2.8c0.1-1.5-0.3-3-0.9-4.3C134.3,60.7,133.4,59.7,132.3,59.1z
			 M132,67.9c-0.1,0.5-0.3,1-0.6,1.5c-0.3,0.4-0.6,0.8-1,1.1c-0.4,0.3-0.8,0.5-1.3,0.7s-1.1,0.3-1.6,0.2c-0.9,0-1.8-0.2-2.6-0.6
			c-0.7-0.4-1.3-1.1-1.7-1.8c-0.4-0.9-0.6-1.8-0.6-2.8c0-0.6,0.1-1.2,0.2-1.8c0.1-0.5,0.4-1,0.6-1.5c0.3-0.4,0.6-0.8,1-1.1
			s0.9-0.6,1.3-0.7c0.5-0.2,1.1-0.3,1.7-0.2c0.9,0,1.8,0.2,2.5,0.7s1.3,1.1,1.6,1.8c0.4,0.9,0.6,1.8,0.6,2.8
			C132.2,66.8,132.2,67.4,132,67.9z"/>
		<path d="M151,59.2c-1.4-0.7-3-1.1-4.5-1c-1,0-1.9,0.1-2.9,0.4c-0.8,0.2-1.6,0.6-2.3,1.1s-1.3,1.1-1.8,1.7
			c-0.5,0.7-0.8,1.4-1.1,2.2c-0.3,0.9-0.4,1.7-0.4,2.6c0,1.5,0.3,2.9,1,4.2c0.7,1.2,1.7,2.1,2.9,2.8c1.4,0.7,2.9,1.1,4.5,1
			c1,0,2-0.1,3-0.4c0.8-0.2,1.6-0.6,2.3-1.1s1.3-1,1.7-1.7c0.5-0.7,0.9-1.4,1.1-2.2c0.2-0.9,0.4-1.7,0.4-2.6c0-1.5-0.3-2.9-1-4.2
			C153.2,60.8,152.2,59.8,151,59.2z M151,67.9c-0.1,0.5-0.3,1-0.6,1.5c-0.2,0.4-0.6,0.8-1,1.1c-0.4,0.3-0.9,0.6-1.4,0.7
			c-0.6,0.2-1.2,0.3-1.7,0.3c-0.9,0-1.9-0.2-2.6-0.7c-0.7-0.4-1.3-1.1-1.6-1.8c-0.4-0.9-0.6-1.8-0.5-2.8c0-0.6,0.1-1.2,0.2-1.7
			c0.1-0.5,0.3-1,0.6-1.4c0.2-0.4,0.6-0.8,0.9-1.1c0.4-0.3,0.9-0.6,1.3-0.7c0.6-0.2,1.1-0.3,1.7-0.2c0.9,0,1.9,0.2,2.7,0.7
			c0.7,0.4,1.3,1.1,1.6,1.8c0.4,0.9,0.5,1.8,0.5,2.8C151.2,66.7,151.1,67.3,151,67.9z"/>
	</g>
</g>
<g>
	<path id="head" class="st2" d="M12.8,3.9v14.6c0,2.8,2.3,5.1,5.1,5.1s5.1-2.3,5.1-5.1V3.9H12.8z"/>
	<path id="neck" class="st2" d="M5.4,3.8v14.9c0.1,1.1,0.3,2.9,1.2,4.9c0.3,0.8,1.1,2.5,2.9,4.1c0.7,0.6,1.2,1,2.4,1.8
		c2.7,1.8,3.4,1.7,4.2,2.7c0.6,0.7,1.3,2,1.3,4.2v3.7"/>
	<path id="left-hand" class="st2" d="M17.5,40.2l-0.2-1.6c-1.7,0.7-3.9,1.7-6,3.4c-4.6,3.7-6.7,8.1-7.6,10.5"/>
	<path id="right-hand" class="st2" d="M17.5,40.2l-0.2-1.6c1.3,0.2,3.4,0.5,5.9-0.2c5.6-1.6,8-6.4,8.4-7.3"/>
	<path id="body" class="st2" d="M17.5,40.2L17.1,40c-0.1,2.9-0.2,5.9-0.2,8.8"/>
	<path id="left-leg" class="st2" d="M16.9,48.8c0.1,3.3-0.2,8.6-2.2,14.5C11.9,71,7.4,76,4.8,78.6"/>
	<path id="right-leg" class="st2" d="M16.9,48.8c-0.1,3.3,0.2,8.6,2.2,14.5C21.9,71,26.4,76,29,78.6"/>
</g>
</svg>
